HIERARCHY
ROOT Hips
{
    OFFSET   0.000000   0.000000   0.000000
    CHANNELS 6 Xposition Yposition Zposition Zrotation Xrotation Yrotation
    JOINT Chest
    {
        OFFSET   0.000000   8.007230   0.000000
        CHANNELS 3 Zrotation Xrotation Yrotation
        JOINT Chest2
        {
            OFFSET   0.000000  22.077100   0.000000
            CHANNELS 3 Zrotation Xrotation Yrotation
            JOINT Neck
            {
                OFFSET   0.000000  23.255100   0.000000
                CHANNELS 3 Zrotation Xrotation Yrotation
                JOINT Head
                {
                    OFFSET   0.000000  14.370100   1.956600
                    CHANNELS 3 Zrotation Xrotation Yrotation
                    End Site
                    {
                        OFFSET   0.000000  19.566000   0.000000
                    }
                }
            }
            JOINT LeftCollar
            {
                OFFSET   3.911900  19.017000  -0.467063
                CHANNELS 3 Zrotation Xrotation Yrotation
                JOINT LeftShoulder
                {
                    OFFSET  10.383700   0.000000   0.000000
                    CHANNELS 3 Zrotation Xrotation Yrotation
                    JOINT LeftElbow
                    {
                        OFFSET  26.662100   0.001193   0.000980
                        CHANNELS 3 Zrotation Xrotation Yrotation
                        JOINT LeftWrist
                        {
                            OFFSET  28.869000  -0.000059  -0.000082
                            CHANNELS 3 Zrotation Xrotation Yrotation
                            JOINT LeftFinger0
                            {
                                OFFSET   2.044650  -2.323450   3.252850
                                CHANNELS 3 Zrotation Xrotation Yrotation
                                JOINT LeftFinger01
                                {
                                    OFFSET   3.088130   0.000000   0.000000
                                    CHANNELS 3 Zrotation Xrotation Yrotation
                                    JOINT LeftFinger02
                                    {
                                        OFFSET   2.639460   0.000000   0.000000
                                        CHANNELS 3 Zrotation Xrotation Yrotation
                                        End Site
                                        {
                                            OFFSET   2.582190   0.000000   0.000000
                                        }
                                    }
                                }
                            }
                            JOINT LeftFinger1
                            {
                                OFFSET   8.364480   0.000000   3.252850
                                CHANNELS 3 Zrotation Xrotation Yrotation
                                JOINT LeftFinger11
                                {
                                    OFFSET   4.646930   0.000000   0.000000
                                    CHANNELS 3 Zrotation Xrotation Yrotation
                                    JOINT LeftFinger12
                                    {
                                        OFFSET   2.323470   0.000000   0.000000
                                        CHANNELS 3 Zrotation Xrotation Yrotation
                                        End Site
                                        {
                                            OFFSET   2.273050   0.000000   0.000000
                                        }
                                    }
                                }
                            }
                            JOINT LeftFinger2
                            {
                                OFFSET   8.364490   0.000016   1.078090
                                CHANNELS 3 Zrotation Xrotation Yrotation
                                JOINT LeftFinger21
                                {
                                    OFFSET   5.111610   0.000000   0.000000
                                    CHANNELS 3 Zrotation Xrotation Yrotation
                                    JOINT LeftFinger22
                                    {
                                        OFFSET   2.788150   0.000016   0.000000
                                        CHANNELS 3 Zrotation Xrotation Yrotation
                                        End Site
                                        {
                                            OFFSET   2.727660   0.000000   0.000000
                                        }
                                    }
                                }
                            }
                            JOINT LeftFinger3
                            {
                                OFFSET   7.899780   0.000015  -1.078090
                                CHANNELS 3 Zrotation Xrotation Yrotation
                                JOINT LeftFinger31
                                {
                                    OFFSET   4.646930   0.000000   0.000000
                                    CHANNELS 3 Zrotation Xrotation Yrotation
                                    JOINT LeftFinger32
                                    {
                                        OFFSET   2.323470   0.000000   0.000000
                                        CHANNELS 3 Zrotation Xrotation Yrotation
                                        End Site
                                        {
                                            OFFSET   2.273050   0.000000   0.000000
                                        }
                                    }
                                }
                            }
                            JOINT LeftFinger4
                            {
                                OFFSET   7.435090   0.000000  -3.252850
                                CHANNELS 3 Zrotation Xrotation Yrotation
                                JOINT LeftFinger41
                                {
                                    OFFSET   3.717550   0.000000   0.000000
                                    CHANNELS 3 Zrotation Xrotation Yrotation
                                    JOINT LeftFinger42
                                    {
                                        OFFSET   1.858770   0.000000   0.000000
                                        CHANNELS 3 Zrotation Xrotation Yrotation
                                        End Site
                                        {
                                            OFFSET   1.818440   0.000000   0.000000
                                        }
                                    }
                                }
                            }
                        }
                    }
                }
            }
            JOINT RightCollar
            {
                OFFSET  -3.911910  19.017000  -0.467062
                CHANNELS 3 Zrotation Xrotation Yrotation
                JOINT RightShoulder
                {
                    OFFSET -10.383700   0.000014   0.000000
                    CHANNELS 3 Zrotation Xrotation Yrotation
                    JOINT RightElbow
                    {
                        OFFSET -26.662100   0.001225   0.001091
                        CHANNELS 3 Zrotation Xrotation Yrotation
                        JOINT RightWrist
                        {
                            OFFSET -28.869000  -0.000020  -0.000085
                            CHANNELS 3 Zrotation Xrotation Yrotation
                            JOINT RightFinger0
                            {
                                OFFSET  -2.044650  -2.323490   3.252850
                                CHANNELS 3 Zrotation Xrotation Yrotation
                                JOINT RightFinger01
                                {
                                    OFFSET  -3.088130   0.000000   0.000000
                                    CHANNELS 3 Zrotation Xrotation Yrotation
                                    JOINT RightFinger02
                                    {
                                        OFFSET  -2.639460   0.000000   0.000000
                                        CHANNELS 3 Zrotation Xrotation Yrotation
                                        End Site
                                        {
                                            OFFSET  -2.582190   0.000000   0.000000
                                        }
                                    }
                                }
                            }
                            JOINT RightFinger1
                            {
                                OFFSET  -8.364480   0.000000   3.252850
                                CHANNELS 3 Zrotation Xrotation Yrotation
                                JOINT RightFinger11
                                {
                                    OFFSET  -4.646930   0.000000   0.000000
                                    CHANNELS 3 Zrotation Xrotation Yrotation
                                    JOINT RightFinger12
                                    {
                                        OFFSET  -2.323470   0.000000   0.000000
                                        CHANNELS 3 Zrotation Xrotation Yrotation
                                        End Site
                                        {
                                            OFFSET  -2.273050   0.000000   0.000000
                                        }
                                    }
                                }
                            }
                            JOINT RightFinger2
                            {
                                OFFSET  -8.364480   0.000000   1.078090
                                CHANNELS 3 Zrotation Xrotation Yrotation
                                JOINT RightFinger21
                                {
                                    OFFSET  -5.111620   0.000000   0.000000
                                    CHANNELS 3 Zrotation Xrotation Yrotation
                                    JOINT RightFinger22
                                    {
                                        OFFSET  -2.788160   0.000000   0.000000
                                        CHANNELS 3 Zrotation Xrotation Yrotation
                                        End Site
                                        {
                                            OFFSET  -2.727660   0.000000   0.000000
                                        }
                                    }
                                }
                            }
                            JOINT RightFinger3
                            {
                                OFFSET  -7.899780   0.000000  -1.078090
                                CHANNELS 3 Zrotation Xrotation Yrotation
                                JOINT RightFinger31
                                {
                                    OFFSET  -4.646930   0.000000   0.000000
                                    CHANNELS 3 Zrotation Xrotation Yrotation
                                    JOINT RightFinger32
                                    {
                                        OFFSET  -2.323470   0.000000   0.000000
                                        CHANNELS 3 Zrotation Xrotation Yrotation
                                        End Site
                                        {
                                            OFFSET  -2.273050   0.000000   0.000000
                                        }
                                    }
                                }
                            }
                            JOINT RightFinger4
                            {
                                OFFSET  -7.435090   0.000000  -3.252850
                                CHANNELS 3 Zrotation Xrotation Yrotation
                                JOINT RightFinger41
                                {
                                    OFFSET  -3.717550   0.000000   0.000000
                                    CHANNELS 3 Zrotation Xrotation Yrotation
                                    JOINT RightFinger42
                                    {
                                        OFFSET  -1.858760   0.000000   0.000000
                                        CHANNELS 3 Zrotation Xrotation Yrotation
                                        End Site
                                        {
                                            OFFSET  -1.818440   0.000000   0.000000
                                        }
                                    }
                                }
                            }
                        }
                    }
                }
            }
        }
    }
    JOINT LeftHip
    {
        OFFSET   9.783030   0.000000   0.000000
        CHANNELS 3 Zrotation Xrotation Yrotation
        JOINT LeftKnee
        {
            OFFSET   0.000063 -41.789100   0.000608
            CHANNELS 3 Zrotation Xrotation Yrotation
            JOINT LeftAnkle
            {
                OFFSET   0.000048 -41.133200  -0.000184
                CHANNELS 3 Zrotation Xrotation Yrotation
                JOINT LeftToe
                {
                    OFFSET   0.000000  -6.358960  14.674500
                    CHANNELS 3 Zrotation Xrotation Yrotation
                    End Site
                    {
                        OFFSET   0.000000   0.000000   3.913200
                    }
                }
            }
        }
    }
    JOINT RightHip
    {
        OFFSET  -9.783030   0.000000   0.000000
        CHANNELS 3 Zrotation Xrotation Yrotation
        JOINT RightKnee
        {
            OFFSET   0.000071 -41.789100   0.001239
            CHANNELS 3 Zrotation Xrotation Yrotation
            JOINT RightAnkle
            {
                OFFSET   0.000037 -41.133200  -0.000166
                CHANNELS 3 Zrotation Xrotation Yrotation
                JOINT RightToe
                {
                    OFFSET   0.000000  -6.358960  14.674500
                    CHANNELS 3 Zrotation Xrotation Yrotation
                    End Site
                    {
                        OFFSET   0.000000   0.000000   3.913200
                    }
                }
            }
        }
    }
}
MOTION
Frames: 4
Frame Time:   0.016667
 -4.279460  89.669900   0.142294  -0.374451 -16.574600  -0.483476   0.023679  10.087800  -0.933657   0.222736  20.173900  -1.917390  -2.589890  -0.541862  -0.023334  -4.255040  -1.092120  29.141600  -4.625450  -7.773890   2.904200 -58.221000   2.441680 -61.318200  -1.828290 -28.838200 -68.288700  17.669000 -55.728200  41.493800  51.213700  46.767200 -93.038000 -22.052500  -0.004874  -0.001182  -6.026270   0.004003  -0.004416 -61.120100   9.955290  -5.446930 -50.395900  -0.006628  -0.004699 -37.796900  -0.003873  -0.002736 -61.048000  -2.440710   1.343440 -61.076600  -0.000963  -0.003145 -45.807400   0.001503  -0.005213 -48.993900  -2.108930   1.824790 -54.345700  -0.002213  -0.002685 -39.584100  -0.007515  -0.004506 -54.777900  -6.493670   4.564930 -82.555400  -0.000390   0.002493 -54.981900  -0.003889  -0.009307   7.169580  -8.647780  10.955400  30.131400  -3.072440  43.084700 -14.351400 -13.376900  82.723500  46.541000  -7.534750  12.501400 -47.401600  47.082500  62.528800  37.602000  -0.000194   0.000204  15.128500  -0.001248   0.005041  63.435000   0.338431   0.172914  51.901800   0.000785   0.005267  38.926300   0.001348   0.004543  80.530800  -0.005069   0.002268  80.530800   0.000091   0.002033  60.398100   0.003227   0.001033  88.996100  -4.999280  -0.088883  89.951200   0.001174   0.000453  67.463400   0.000775   0.001483  88.983600 -10.001300  -0.181674 110.000000  -0.002716   0.005494  79.998800  -0.000850   0.002684   3.335440  13.707900   1.224530   1.970750   8.266980  12.128800  -9.529890  -5.754820  -1.004030   0.000000   0.000000   0.000000   2.916940  16.575400 -11.260800   0.394631   1.885830 -13.310700  -9.873220  -0.369701   1.047180  -0.000000   0.000000   0.000000
 -4.261860  89.669400   0.126508  -0.420327 -16.554200  -0.642733   0.011431  10.062000  -0.968505   0.203622  20.122500  -1.986250  -2.642470  -0.487746  -0.022509  -4.341780  -0.982537  28.445300  -4.611900  -7.691450   2.866660 -58.284700   2.392420 -61.280400  -1.844950 -28.807700 -68.334300  17.642500 -55.739300  41.467800  51.200400  46.767000 -93.035900 -22.036500  -0.004878  -0.001172  -6.018270   0.004005  -0.004415 -61.122400   9.954920  -5.446230 -50.397700  -0.006652  -0.004671 -37.798300  -0.003886  -0.002721 -61.057300  -2.440790   1.343190 -61.085900  -0.000977  -0.003147 -45.814400   0.001501  -0.005225 -49.079100  -2.109310   1.817910 -54.339800  -0.002238  -0.002685 -39.601600  -0.007566  -0.004496 -54.820700  -6.512140   4.570720 -82.621300  -0.000400   0.002535 -55.025800  -0.003919  -0.009371   7.195370  -8.640580  10.871100  30.024000  -3.755090  42.241100 -14.302100 -13.555800  82.522400  46.268100  -7.423630  12.571800 -47.668700  47.237200  62.866400  37.522600  -0.000196   0.000175  15.055700  -0.001292   0.005041  63.443200   0.339875   0.170382  51.908500   0.000786   0.005343  38.931400   0.001388   0.004546  80.542800  -0.005131   0.002248  80.542800   0.000110   0.002018  60.407100   0.003208   0.001028  88.996100  -4.999340  -0.088900  89.957000   0.001199   0.000428  67.467700   0.000754   0.001436  88.983600 -10.001400  -0.181756 110.000000  -0.002741   0.005541  79.998800  -0.000853   0.002674   3.330740  13.706500   1.234390   1.958200   8.253650  12.244700  -9.526540  -5.743470  -0.971409  -0.000000   0.000000   0.000000   2.898770  16.520800 -11.228600   0.386233   1.902490 -13.277000  -9.873690  -0.354540   1.132900   0.000000   0.000000   0.000000
 -4.245130  89.667400   0.109649  -0.455579 -16.540200  -0.764852  -0.000776  10.042600  -1.010820   0.186058  20.083300  -2.070450  -2.698520  -0.432988  -0.021138  -4.433880  -0.871668  27.751900  -4.601030  -7.631890   2.819600 -58.365000   2.346790 -61.238100  -1.855100 -28.779100 -68.384300  17.611500 -55.748300  41.444000  51.203100  46.778500 -93.055800 -22.026000  -0.004877  -0.001162  -6.013030   0.004011  -0.004412 -61.162400   9.949700  -5.433800 -50.429400  -0.006660  -0.004641 -37.822100  -0.003909  -0.002699 -61.067700  -2.440860   1.342950 -61.096400  -0.000990  -0.003144 -45.822300   0.001492  -0.005224 -49.220000  -2.109050   1.815240 -54.333200  -0.002267  -0.002681 -39.630800  -0.007631  -0.004481 -54.876800  -6.536300   4.577970 -82.707500  -0.000395   0.002578 -55.083200  -0.003953  -0.009443   7.242050  -8.656310  10.775300  30.020500  -4.377100  41.381500 -14.245600 -13.701400  82.449100  45.742800  -7.197380  12.615400 -48.169200  47.516100  63.245600  37.318100  -0.000206   0.000198  14.884000  -0.001332   0.005040  63.267300   0.301246   0.151083  51.764500   0.000789   0.005419  38.823300   0.001429   0.004557  80.403200  -0.005181   0.002230  80.403200   0.000139   0.002001  60.302300   0.003183   0.001024  88.996100  -4.999390  -0.088922  89.846300   0.001215   0.000398  67.384800   0.000737   0.001389  88.983600 -10.001400  -0.181840 110.000000  -0.002767   0.005584  79.998800  -0.000848   0.002660   3.323310  13.706000   1.249840   1.948630   8.247620  12.327000  -9.522180  -5.732530  -0.946096   0.000000   0.000000   0.000000   2.880570  16.479400 -11.226800   0.382722   1.912250 -13.275500  -9.881590  -0.346898   1.240490  -0.000000   0.000000   0.000000
 -4.230470  89.664700   0.092416  -0.483922 -16.534200  -0.862450  -0.012778  10.030400  -1.056300   0.169679  20.059400  -2.161280  -2.756860  -0.382696  -0.019477  -4.529370  -0.769834  27.083800  -4.599230  -7.593570   2.775570 -58.439400   2.304590 -61.202200  -1.864030 -28.753200 -68.434900  17.580200 -55.753700  41.416800  51.253200  46.808700 -93.111100 -22.006700  -0.004875  -0.001153  -6.003340   0.004015  -0.004410 -61.200400   9.944800  -5.421960 -50.459400  -0.006668  -0.004613 -37.844600  -0.003933  -0.002677 -61.073500  -2.440920   1.342720 -61.102200  -0.001003  -0.003141 -45.826600   0.001484  -0.005223 -49.325300  -2.108780   1.814500 -54.328000  -0.002297  -0.002676 -39.652500  -0.007700  -0.004464 -54.927400  -6.558090   4.584580 -82.785200  -0.000389   0.002621 -55.135000  -0.003983  -0.009518   7.299200  -8.671950  10.681800  30.203700  -4.948360  40.536400 -14.010800 -13.801200  82.466000  44.974800  -6.947910  12.680000 -48.695000  47.814800  63.655000  37.108100  -0.000216   0.000243  14.707800  -0.001373   0.005039  63.091300   0.262616   0.133954  51.620400   0.000791   0.005494  38.715300   0.001471   0.004569  80.263600  -0.005229   0.002210  80.263500   0.000171   0.001986  60.197600   0.003157   0.001021  88.996100  -4.999440  -0.088946  89.735700   0.001231   0.000368  67.301800   0.000720   0.001340  88.983600 -10.001400  -0.181925 110.000000  -0.002791   0.005631  79.998800  -0.000843   0.002644   3.316280  13.705600   1.268820   1.942040   8.245250  12.387100  -9.516560  -5.725580  -0.926662  -0.000000   0.000000   0.000000   2.864380  16.447700 -11.225600   0.377820   1.920780 -13.273900  -9.891530  -0.341541   1.336390  -0.000000   0.000000   0.000000
